<svg preserveAspectRatio="none" overflow="visible" style="display: block;" width="18" height="18" viewBox="0 0 18 18" fill="none" xmlns="http://www.w3.org/2000/svg">
<g id="drive_file_rename">
<mask id="mask0_0_36" style="mask-type:alpha" maskUnits="userSpaceOnUse" x="0" y="0" width="18" height="18">
<rect id="Bounding box" width="18" height="18" fill="#D9D9D9"/>
</mask>
<g mask="url(#mask0_0_36)">
<path id="drive_file_rename_2" d="M8.41875 12.75H13.5V11.25H9.91875L8.41875 12.75ZM4.5 12.75H6.80625L11.6812 7.875C11.7937 7.7625 11.875 7.63438 11.925 7.49063C11.975 7.34688 12 7.20625 12 7.06875C12 6.93125 11.9719 6.79375 11.9156 6.65625C11.8594 6.51875 11.7812 6.39375 11.6812 6.28125L10.9875 5.5875C10.875 5.475 10.75 5.39063 10.6125 5.33438C10.475 5.27813 10.3312 5.25 10.1812 5.25C10.0437 5.25 9.90625 5.275 9.76875 5.325C9.63125 5.375 9.50625 5.45625 9.39375 5.56875L4.5 10.4438V12.75ZM5.625 11.625V10.9125L8.6625 7.89375L9.01875 8.23125L9.35625 8.5875L6.3375 11.625H5.625ZM9.01875 8.23125L9.35625 8.5875L8.6625 7.89375L9.01875 8.23125ZM3.75 15.75C3.3375 15.75 2.98438 15.6031 2.69063 15.3094C2.39688 15.0156 2.25 14.6625 2.25 14.25V3.75C2.25 3.3375 2.39688 2.98438 2.69063 2.69063C2.98438 2.39688 3.3375 2.25 3.75 2.25H14.25C14.6625 2.25 15.0156 2.39688 15.3094 2.69063C15.6031 2.98438 15.75 3.3375 15.75 3.75V14.25C15.75 14.6625 15.6031 15.0156 15.3094 15.3094C15.0156 15.6031 14.6625 15.75 14.25 15.75H3.75ZM3.75 14.25H14.25V3.75H3.75V14.25Z" fill="white"/>
</g>
</g>
</svg>
